<svg width="38" height="38" viewBox="0 0 38 38" fill="none" xmlns="http://www.w3.org/2000/svg">
<path d="M23.65 12.4762L25.5 14.3262L15.0167 24.8095L13.1667 22.9595L23.65 12.4762ZM7.00001 6.30952H31.6667C33.3779 6.30952 34.75 7.6816 34.75 9.39285V15.5595C33.9323 15.5595 33.148 15.8844 32.5698 16.4626C31.9915 17.0408 31.6667 17.8251 31.6667 18.6429C31.6667 19.4606 31.9915 20.2449 32.5698 20.8231C33.148 21.4013 33.9323 21.7262 34.75 21.7262V27.8929C34.75 29.6041 33.3779 30.9762 31.6667 30.9762H7.00001C6.18225 30.9762 5.398 30.6513 4.81976 30.0731C4.24152 29.4949 3.91667 28.7106 3.91667 27.8929V21.7262C5.62792 21.7262 7.00001 20.3541 7.00001 18.6429C7.00001 17.8251 6.67515 17.0408 6.09692 16.4626C5.51868 15.8844 4.73442 15.5595 3.91667 15.5595V9.39285C3.91667 8.5751 4.24152 7.79085 4.81976 7.21261C5.398 6.63437 6.18225 6.30952 7.00001 6.30952ZM7.00001 9.39285V13.3087C7.93684 13.8489 8.71489 14.6263 9.25586 15.5627C9.79683 16.4991 10.0816 17.5614 10.0816 18.6429C10.0816 19.7243 9.79683 20.7866 9.25586 21.723C8.71489 22.6594 7.93684 23.4368 7.00001 23.977V27.8929H31.6667V23.977C30.7298 23.4368 29.9518 22.6594 29.4108 21.723C28.8699 20.7866 28.585 19.7243 28.585 18.6429C28.585 17.5614 28.8699 16.4991 29.4108 15.5627C29.9518 14.6263 30.7298 13.8489 31.6667 13.3087V9.39285H7.00001ZM15.4792 12.4762C16.7588 12.4762 17.7917 13.5091 17.7917 14.7887C17.7917 16.0683 16.7588 17.1012 15.4792 17.1012C14.1996 17.1012 13.1667 16.0683 13.1667 14.7887C13.1667 13.5091 14.1996 12.4762 15.4792 12.4762ZM23.1875 20.1845C24.4671 20.1845 25.5 21.2174 25.5 22.497C25.5 23.7766 24.4671 24.8095 23.1875 24.8095C21.9079 24.8095 20.875 23.7766 20.875 22.497C20.875 21.2174 21.9079 20.1845 23.1875 20.1845Z" fill="#5F3EF6"/>
</svg>
