<svg width="36" height="26" viewBox="0 0 36 26" fill="none" xmlns="http://www.w3.org/2000/svg">
<path d="M32.9632 25.1429H3.33385C2.58246 25.1414 1.86224 24.8118 1.33104 24.2263C0.799846 23.6407 0.501 22.8471 0.5 22.0192V3.26785C0.500666 2.43976 0.799365 1.64575 1.3306 1.05994C1.86183 0.474124 2.58224 0.144323 3.33385 0.142853H32.9632C33.7146 0.144322 34.4348 0.473933 34.966 1.05945C35.4972 1.64496 35.7961 2.43861 35.7971 3.26646V22.0179C35.7979 22.4283 35.7252 22.8348 35.5831 23.2142C35.441 23.5935 35.2323 23.9383 34.9691 24.2286C34.7058 24.5189 34.3931 24.7492 34.0489 24.906C33.7047 25.0629 33.3357 25.1434 32.9632 25.1429Z" fill="#413EE0"/>
<path d="M27.4594 16.8095H5.05584C4.85043 16.8084 4.65376 16.7178 4.50875 16.5575C4.36373 16.3973 4.28216 16.1803 4.28183 15.954V12.1095C4.28183 11.647 4.62472 11.254 5.05584 11.254H27.4594C27.8779 11.254 28.2334 11.6331 28.2334 12.1095V15.9679C28.2329 16.0792 28.2125 16.1893 28.1733 16.2919C28.1341 16.3945 28.0769 16.4875 28.005 16.5657C27.9331 16.6439 27.8479 16.7057 27.7543 16.7475C27.6606 16.7894 27.5604 16.8104 27.4594 16.8095Z" fill="#F4F4F4"/>
<path d="M29.939 22.3651H32.2006C32.342 22.366 32.4822 22.336 32.6131 22.2768C32.7439 22.2176 32.8628 22.1304 32.9628 22.0202C33.0628 21.91 33.142 21.779 33.1957 21.6348C33.2495 21.4907 33.2767 21.3362 33.2759 21.1804V18.6887C33.2767 18.5329 33.2495 18.3784 33.1957 18.2342C33.142 18.0901 33.0628 17.9591 32.9628 17.8489C32.8628 17.7387 32.7439 17.6515 32.6131 17.5923C32.4822 17.5331 32.342 17.5031 32.2006 17.504H29.939C29.7976 17.5031 29.6574 17.5331 29.5266 17.5923C29.3957 17.6515 29.2768 17.7387 29.1768 17.8489C29.0768 17.9591 28.9976 18.0901 28.9439 18.2342C28.8901 18.3784 28.8629 18.5329 28.8637 18.6887V21.1804C28.866 21.4938 28.9801 21.7937 29.1812 22.0153C29.3824 22.2369 29.6546 22.3626 29.939 22.3651Z" fill="#EC9109"/>
<path d="M35.7971 4.30952H0.5V6.58224H35.7971V4.30952Z" fill="#D7D3FD"/>
<path d="M5.54244 14.0317C5.54244 13.8476 5.60885 13.6709 5.72705 13.5407C5.84526 13.4105 6.00558 13.3373 6.17275 13.3373H20.0395C20.2066 13.3373 20.3669 13.4105 20.4851 13.5407C20.6034 13.6709 20.6698 13.8476 20.6698 14.0317C20.6698 14.2159 20.6034 14.3926 20.4851 14.5228C20.3669 14.653 20.2066 14.7262 20.0395 14.7262H6.17275C6.00558 14.7262 5.84526 14.653 5.72705 14.5228C5.60885 14.3926 5.54244 14.2159 5.54244 14.0317Z" fill="#EC9109"/>
</svg>
