<svg width="24" height="24" viewBox="0 0 24 24" fill="none" xmlns="http://www.w3.org/2000/svg">
<g clip-path="url(#clip0_554_704)">
<path d="M15.217 5.26498C15.4119 5.44481 15.5274 5.6947 15.5381 5.95968C15.5488 6.22467 15.4538 6.48305 15.274 6.67799L10.386 11.972L15.707 17.293C15.8891 17.4816 15.9899 17.7342 15.9877 17.9964C15.9854 18.2586 15.8802 18.5094 15.6948 18.6948C15.5094 18.8802 15.2586 18.9854 14.9964 18.9877C14.7342 18.9899 14.4816 18.8891 14.293 18.707L8.29299 12.707C8.11042 12.5244 8.00555 12.2783 8.00033 12.0201C7.99511 11.762 8.08995 11.5118 8.26499 11.322L13.8 5.32199C13.8888 5.22522 13.9957 5.14689 14.1148 5.09147C14.2339 5.03605 14.3627 5.00461 14.4939 4.99897C14.6251 4.99333 14.7561 5.01358 14.8795 5.05857C15.0028 5.10357 15.1161 5.17242 15.2129 5.26121L15.217 5.26498Z" fill="#1F1F1F"/>
</g>
<defs>
<clipPath id="clip0_554_704">
<rect width="24" height="24" fill="white"/>
</clipPath>
</defs>
</svg>
